[Scene-009] Analyzing scene content with Gemini...
Uploading /Users/shreybirmiwal/projects/GCinema/pipeline/output/CC-Girl-Scene/Scene-009/clip.mp4 ...
  Waiting for Gemini to process video ...
Upload complete: https://generativelanguage.googleapis.com/v1beta/files/7wd1pe5pvrcq
Generating description with gemini-3.1-pro-preview ...
Description written to: /Users/shreybirmiwal/projects/GCinema/pipeline/output/CC-Girl-Scene/Scene-009/description.txt
[Scene-009] Description saved.
[Scene-009] Extracting first frame as keyframe...
Frame saved to: /Users/shreybirmiwal/projects/GCinema/pipeline/output/CC-Girl-Scene/Scene-009/frame0.png
[Scene-009] Keyframe saved: frame0.png
[Scene-009] Waiting for Scene-008 colorization...
[Scene-009] Colorizing keyframe with Gemini...
[Scene-009] Using color reference from Scene-008
Input:     /Users/shreybirmiwal/projects/GCinema/pipeline/output/CC-Girl-Scene/Scene-009/frame0.png
Input2:    (none)
Reference: /Users/shreybirmiwal/projects/GCinema/pipeline/output/CC-Girl-Scene/Scene-008/frame0_colorized.jpg
Model:     gemini-3.1-flash-image-preview
Colorizing ...
Colorized image saved to: /Users/shreybirmiwal/projects/GCinema/pipeline/output/CC-Girl-Scene/Scene-009/frame0_colorized.jpg
[Scene-009] Colorized keyframe saved.
[Scene-009] Generating colorized video (26s target)...
Image:       /Users/shreybirmiwal/projects/GCinema/pipeline/output/CC-Girl-Scene/Scene-009/frame0_colorized.jpg
Description: /Users/shreybirmiwal/projects/GCinema/pipeline/output/CC-Girl-Scene/Scene-009/description.txt
Backend:     auto
Duration:    26s
Output:      /Users/shreybirmiwal/projects/GCinema/pipeline/output/CC-Girl-Scene/Scene-009/frame0_colorized_generated.mp4
Generating via Veo (veo-3.1-generate-preview) ...
Waiting for Veo to generate video...Warning: Veo content filter blocked generation (filtered=1): ["Sorry, we can't create videos with real people's names or likenesses. Please remove the celebrity reference and try again."]

Falling back to Kling ...
Uploading image to fal.ai ...
Calling Kling v3 Pro image-to-video (10s) ...
Downloading Kling video ...
Video saved to: /Users/shreybirmiwal/projects/GCinema/pipeline/output/CC-Girl-Scene/Scene-009/frame0_colorized_generated.mp4
[Scene-009] Generated video saved.
[Scene-009] Time-stretching to match original clip duration...
ffmpeg version 8.0 Copyright (c) 2000-2025 the FFmpeg developers
  built with Apple clang version 17.0.0 (clang-1700.0.13.3)
  configuration: --prefix=/opt/homebrew/Cellar/ffmpeg/8.0_1 --enable-shared --enable-pthreads --enable-version3 --cc=clang --host-cflags= --host-ldflags='-Wl,-ld_classic' --enable-ffplay --enable-gnutls --enable-gpl --enable-libaom --enable-libaribb24 --enable-libbluray --enable-libdav1d --enable-libharfbuzz --enable-libjxl --enable-libmp3lame --enable-libopus --enable-librav1e --enable-librist --enable-librubberband --enable-libsnappy --enable-libsrt --enable-libssh --enable-libsvtav1 --enable-libtesseract --enable-libtheora --enable-libvidstab --enable-libvmaf --enable-libvorbis --enable-libvpx --enable-libwebp --enable-libx264 --enable-libx265 --enable-libxml2 --enable-libxvid --enable-lzma --enable-libfontconfig --enable-libfreetype --enable-frei0r --enable-libass --enable-libopencore-amrnb --enable-libopencore-amrwb --enable-libopenjpeg --enable-libspeex --enable-libsoxr --enable-libzmq --enable-libzimg --disable-libjack --disable-indev=jack --enable-videotoolbox --enable-audiotoolbox --enable-neon
  libavutil      60.  8.100 / 60.  8.100
  libavcodec     62. 11.100 / 62. 11.100
  libavformat    62.  3.100 / 62.  3.100
  libavdevice    62.  1.100 / 62.  1.100
  libavfilter    11.  4.100 / 11.  4.100
  libswscale      9.  1.100 /  9.  1.100
  libswresample   6.  1.100 /  6.  1.100
Input #0, mov,mp4,m4a,3gp,3g2,mj2, from '/Users/shreybirmiwal/projects/GCinema/pipeline/output/CC-Girl-Scene/Scene-009/frame0_colorized_generated.mp4':
  Metadata:
    minor_version   : 512
    major_brand     : isom
    compatible_brands: isomiso2avc1mp41
    encoder         : Lavf60.16.100
  Duration: 00:00:10.04, start: 0.000000, bitrate: 17516 kb/s
  Stream #0:0[0x1](und): Audio: aac (LC) (mp4a / 0x6134706D), 44100 Hz, stereo, fltp, 128 kb/s (default)
    Metadata:
      handler_name    : SoundHandler
      vendor_id       : [0][0][0][0]
  Stream #0:1[0x2](und): Video: h264 (Main) (avc1 / 0x31637661), yuv420p(progressive), 1920x1080, 17381 kb/s, 24 fps, 24 tbr, 12288 tbn (default)
    Metadata:
      handler_name    : VideoHandler
      vendor_id       : [0][0][0][0]
      encoder         : Lavc60.31.102 h264_slapi
Stream mapping:
  Stream #0:1 -> #0:0 (h264 (native) -> h264 (libx264))
  Stream #0:0 -> #0:1 (aac (native) -> aac (native))
Press [q] to stop, [?] for help
[h264 @ 0x81d04d880] Late SEI is not implemented. Update your FFmpeg version to the newest one from Git. If the problem still occurs, it means that your file has a feature which has not been implemented.
[h264 @ 0x81d04d880] If you want to help, upload a sample of this file to https://streams.videolan.org/upload/ and contact the ffmpeg-devel mailing list. (ffmpeg-devel@ffmpeg.org)
[libx264 @ 0x81d04d180] using cpu capabilities: ARMv8 NEON DotProd I8MM
[libx264 @ 0x81d04d180] profile High, level 4.0, 4:2:0, 8-bit
[libx264 @ 0x81d04d180] 264 - core 165 r3222 b35605a - H.264/MPEG-4 AVC codec - Copyleft 2003-2025 - http://www.videolan.org/x264.html - options: cabac=1 ref=2 deblock=1:0:0 analyse=0x3:0x113 me=hex subme=6 psy=1 psy_rd=1.00:0.00 mixed_ref=1 me_range=16 chroma_me=1 trellis=1 8x8dct=1 cqm=0 deadzone=21,11 fast_pskip=1 chroma_qp_offset=-2 threads=21 lookahead_threads=3 sliced_threads=0 nr=0 decimate=1 interlaced=0 bluray_compat=0 constrained_intra=0 bframes=3 b_pyramid=2 b_adapt=1 b_bias=0 direct=1 weightb=1 open_gop=0 weightp=1 keyint=250 keyint_min=24 scenecut=40 intra_refresh=0 rc_lookahead=30 rc=crf mbtree=1 crf=18.0 qcomp=0.60 qpmin=0 qpmax=69 qpstep=4 ip_ratio=1.40 aq=1:1.00
Output #0, mp4, to '/Users/shreybirmiwal/projects/GCinema/pipeline/output/CC-Girl-Scene/Scene-009/frame0_colorized_generated_matched.mp4':
  Metadata:
    minor_version   : 512
    major_brand     : isom
    compatible_brands: isomiso2avc1mp41
    encoder         : Lavf62.3.100
  Stream #0:0(und): Video: h264 (avc1 / 0x31637661), yuv420p(tv, progressive), 1920x1080, q=2-31, 24 fps, 12288 tbn (default)
    Metadata:
      encoder         : Lavc62.11.100 libx264
      handler_name    : VideoHandler
      vendor_id       : [0][0][0][0]
    Side data:
      cpb: bitrate max/min/avg: 0/0/0 buffer size: 0 vbv_delay: N/A
  Stream #0:1(und): Audio: aac (LC) (mp4a / 0x6134706D), 44100 Hz, stereo, fltp, 128 kb/s (default)
    Metadata:
      encoder         : Lavc62.11.100 aac
      handler_name    : SoundHandler
      vendor_id       : [0][0][0][0]
frame=   33 fps=0.0 q=23.0 size=     512KiB time=00:00:01.29 bitrate=3247.5kbits/s dup=59 drop=0 speed=2.56x elapsed=0:00:00.50    frame=   86 fps= 85 q=23.0 size=    1536KiB time=00:00:03.50 bitrate=3595.2kbits/s dup=90 drop=0 speed=3.46x elapsed=0:00:01.01    frame=  134 fps= 88 q=23.0 size=    2560KiB time=00:00:05.50 bitrate=3813.1kbits/s dup=119 drop=0 speed=3.63x elapsed=0:00:01.51    frame=  179 fps= 89 q=23.0 size=    3840KiB time=00:00:07.37 bitrate=4265.4kbits/s dup=146 drop=0 speed=3.65x elapsed=0:00:02.02    frame=  224 fps= 89 q=23.0 size=    5120KiB time=00:00:09.29 bitrate=4514.1kbits/s dup=173 drop=0 speed=3.68x elapsed=0:00:02.52    frame=  277 fps= 91 q=23.0 size=    6400KiB time=00:00:11.45 bitrate=4575.6kbits/s dup=205 drop=0 speed=3.78x elapsed=0:00:03.03    frame=  325 fps= 92 q=23.0 size=    7424KiB time=00:00:13.45 bitrate=4519.0kbits/s dup=235 drop=0 speed=3.81x elapsed=0:00:03.53    frame=  371 fps= 92 q=23.0 size=    8448KiB time=00:00:15.37 bitrate=4501.2kbits/s dup=262 drop=0 speed=3.81x elapsed=0:00:04.03    frame=  416 fps= 92 q=23.0 size=    9984KiB time=00:00:17.25 bitrate=4741.4kbits/s dup=289 drop=0 speed= 3.8x elapsed=0:00:04.53    frame=  461 fps= 91 q=23.0 size=   11264KiB time=00:00:19.12 bitrate=4824.8kbits/s dup=316 drop=0 speed= 3.8x elapsed=0:00:05.03    frame=  507 fps= 92 q=23.0 size=   13056KiB time=00:00:21.04 bitrate=5083.0kbits/s dup=343 drop=0 speed= 3.8x elapsed=0:00:05.53    [out#0/mp4 @ 0x81cc80300] video:14263KiB audio:392KiB subtitle:0KiB other streams:0KiB global headers:0KiB muxing overhead: 0.137277%
frame=  603 fps=101 q=-1.0 Lsize=   14675KiB time=00:00:25.04 bitrate=4800.8kbits/s dup=362 drop=0 speed=4.21x elapsed=0:00:05.94    
[libx264 @ 0x81d04d180] frame I:4     Avg QP:12.73  size:114105
[libx264 @ 0x81d04d180] frame P:165   Avg QP:16.35  size: 65176
[libx264 @ 0x81d04d180] frame B:434   Avg QP:18.51  size:  7820
[libx264 @ 0x81d04d180] consecutive B-frames:  0.7%  6.0% 12.4% 80.9%
[libx264 @ 0x81d04d180] mb I  I16..4: 51.0% 24.0% 25.0%
[libx264 @ 0x81d04d180] mb P  I16..4: 14.2% 14.2%  6.2%  P16..4: 34.0% 13.8%  6.0%  0.0%  0.0%    skip:11.7%
[libx264 @ 0x81d04d180] mb B  I16..4:  1.6%  1.7%  0.8%  B16..8: 11.9%  2.6%  0.2%  direct: 5.5%  skip:75.5%  L0:49.4% L1:42.8% BI: 7.8%
[libx264 @ 0x81d04d180] 8x8 transform intra:40.0% inter:39.2%
[libx264 @ 0x81d04d180] coded y,uvDC,uvAC intra: 52.4% 56.7% 22.4% inter: 12.3% 13.3% 0.3%
[libx264 @ 0x81d04d180] i16 v,h,dc,p: 41% 26% 17% 17%
[libx264 @ 0x81d04d180] i8 v,h,dc,ddl,ddr,vr,hd,vl,hu: 27% 20% 32%  3%  3%  4%  3%  5%  3%
[libx264 @ 0x81d04d180] i4 v,h,dc,ddl,ddr,vr,hd,vl,hu: 32% 25% 18%  3%  6%  6%  5%  4%  3%
[libx264 @ 0x81d04d180] i8c dc,h,v,p: 50% 19% 23%  8%
[libx264 @ 0x81d04d180] Weighted P-Frames: Y:1.2% UV:0.0%
[libx264 @ 0x81d04d180] ref P L0: 85.6% 14.4%
[libx264 @ 0x81d04d180] ref B L0: 87.0% 13.0%
[libx264 @ 0x81d04d180] ref B L1: 98.2%  1.8%
[libx264 @ 0x81d04d180] kb/s:4650.19
[aac @ 0x81d0f9180] Qavg: 786.477
Original duration:   25.167s
Colorized duration:  10.042s
PTS factor:          2.5062x  (target: 25.167s)
Running: ffmpeg -y -i /Users/shreybirmiwal/projects/GCinema/pipeline/output/CC-Girl-Scene/Scene-009/frame0_colorized_generated.mp4 -vf setpts=2.506224*PTS -c:v libx264 -preset fast -crf 18 -r 24 -pix_fmt yuv420p -af atempo=0.5,atempo=0.798013 /Users/shreybirmiwal/projects/GCinema/pipeline/output/CC-Girl-Scene/Scene-009/frame0_colorized_generated_matched.mp4
Output saved to: /Users/shreybirmiwal/projects/GCinema/pipeline/output/CC-Girl-Scene/Scene-009/frame0_colorized_generated_matched.mp4
[Scene-009] Matched video saved.
[Scene-009] All steps complete!
